<?xml version="1.0" encoding="utf-8"?>
<!-- Generator: Adobe Illustrator 22.1.0, SVG Export Plug-In . SVG Version: 6.00 Build 0)  -->
<svg version="1.1" id="Layer_1" xmlns="http://www.w3.org/2000/svg" xmlns:xlink="http://www.w3.org/1999/xlink" x="0px" y="0px"
	 viewBox="0 0 36 36" style="enable-background:new 0 0 36 36;" xml:space="preserve">
<style type="text/css">
	.st0{display:none;}
	.st1{clip-path:url(#SVGID_4_);fill:#FFFFFF;}
	.st2{clip-path:url(#SVGID_10_);fill:#FFFFFF;}
	.st3{clip-path:url(#SVGID_16_);fill:#FFFFFF;}
	.st4{clip-path:url(#SVGID_22_);fill:#FFFFFF;}
	.st5{clip-path:url(#SVGID_28_);fill:#FFFFFF;}
	.st6{clip-path:url(#SVGID_34_);fill:#FFFFFF;}
	.st7{clip-path:url(#SVGID_40_);fill:#FFFFFF;}
	.st8{clip-path:url(#SVGID_46_);fill:#FFFFFF;}
</style>
<path class="st0" d="M18,2.5C8.1,2.5,0,8.8,0,16.7c0,5.1,3.4,9.6,8.5,12.1c-0.4,1.4-1.4,5.1-1.6,5.9c-0.2,1,0.4,1,0.8,0.7
	c0.3-0.2,4.9-3.4,6.9-4.7c1.1,0.2,2.2,0.2,3.3,0.2c9.9,0,18-6.4,18-14.2C36,8.8,27.9,2.5,18,2.5"/>
<g>
	<g>
		<g>
			<defs>
				<path id="SVGID_1_" d="M5.4,14.1h1.9c0,0,0,5.1,0,6.3c0,0.9,1.9,0.9,1.9,0l0-6.2c0,0,0.6,0,1.8,0c1.2,0,1.2-1.8,0-1.8
					c-1.3,0-5.6,0-5.6,0C4.4,12.3,4.4,14.1,5.4,14.1"/>
			</defs>
			<clipPath id="SVGID_2_">
				<use xlink:href="#SVGID_1_"  style="overflow:visible;"/>
			</clipPath>
		</g>
		<g>
			<defs>
				<path id="SVGID_3_" d="M5.4,14.1h1.9c0,0,0,5.1,0,6.3c0,0.9,1.9,0.9,1.9,0l0-6.2c0,0,0.6,0,1.8,0c1.2,0,1.2-1.8,0-1.8
					c-1.3,0-5.6,0-5.6,0C4.4,12.3,4.4,14.1,5.4,14.1"/>
			</defs>
			<use xlink:href="#SVGID_3_"  style="overflow:visible;fill:#FFFFFF;"/>
			<clipPath id="SVGID_4_">
				<use xlink:href="#SVGID_3_"  style="overflow:visible;"/>
			</clipPath>
			<rect x="4.4" y="12.3" class="st1" width="7.9" height="8.9"/>
		</g>
		<g>
			<defs>
				<path id="SVGID_5_" d="M5.4,14.1h1.9c0,0,0,5.1,0,6.3c0,0.9,1.9,0.9,1.9,0l0-6.2c0,0,0.6,0,1.8,0c1.2,0,1.2-1.8,0-1.8
					c-1.3,0-5.6,0-5.6,0C4.4,12.3,4.4,14.1,5.4,14.1"/>
			</defs>
			<clipPath id="SVGID_6_">
				<use xlink:href="#SVGID_5_"  style="overflow:visible;"/>
			</clipPath>
		</g>
	</g>
	<g>
		<g>
			<defs>
				<path id="SVGID_7_" d="M14.3,14.4l1,3.2h-2.1L14.3,14.4z M13.2,12.9c-0.5,1-2.1,5.7-2.6,7c-0.4,0.9,1.3,1.7,1.7,0.7l0.4-1.3H16
					c0,0-0.1,0.1,0.3,1.2c0.4,1,2.1,0.3,1.8-0.7c-0.5-1.4-2.3-6.3-2.6-7c-0.2-0.3-0.7-0.6-1.2-0.6C13.8,12.3,13.3,12.5,13.2,12.9"/>
			</defs>
			<clipPath id="SVGID_8_">
				<use xlink:href="#SVGID_7_"  style="overflow:visible;"/>
			</clipPath>
		</g>
		<g>
			<defs>
				<path id="SVGID_9_" d="M14.3,14.4l1,3.2h-2.1L14.3,14.4z M13.2,12.9c-0.5,1-2.1,5.7-2.6,7c-0.4,0.9,1.3,1.7,1.7,0.7l0.4-1.3H16
					c0,0-0.1,0.1,0.3,1.2c0.4,1,2.1,0.3,1.8-0.7c-0.5-1.4-2.3-6.3-2.6-7c-0.2-0.3-0.7-0.6-1.2-0.6C13.8,12.3,13.3,12.5,13.2,12.9"/>
			</defs>
			<use xlink:href="#SVGID_9_"  style="overflow:visible;fill:#FFFFFF;"/>
			<clipPath id="SVGID_10_">
				<use xlink:href="#SVGID_9_"  style="overflow:visible;"/>
			</clipPath>
			<rect x="10.1" y="12.3" class="st2" width="8.3" height="9.2"/>
		</g>
		<g>
			<defs>
				<path id="SVGID_11_" d="M14.3,14.4l1,3.2h-2.1L14.3,14.4z M13.2,12.9c-0.5,1-2.1,5.7-2.6,7c-0.4,0.9,1.3,1.7,1.7,0.7l0.4-1.3H16
					c0,0-0.1,0.1,0.3,1.2c0.4,1,2.1,0.3,1.8-0.7c-0.5-1.4-2.3-6.3-2.6-7c-0.2-0.3-0.7-0.6-1.2-0.6C13.8,12.3,13.3,12.5,13.2,12.9"/>
			</defs>
			<clipPath id="SVGID_12_">
				<use xlink:href="#SVGID_11_"  style="overflow:visible;"/>
			</clipPath>
		</g>
	</g>
	<g>
		<g>
			<defs>
				<path id="SVGID_13_" d="M18.7,13.2c0,1.6,0,6.8,0,6.8s-0.1,1,0.7,1c0.9,0,2.8,0,3.7,0c0.9,0,0.9-1.9,0-1.9c-0.9,0-2.5,0-2.5,0
					s0-4.8,0-6c0-0.6-0.5-0.8-1-0.8C19.2,12.3,18.7,12.6,18.7,13.2"/>
			</defs>
			<clipPath id="SVGID_14_">
				<use xlink:href="#SVGID_13_"  style="overflow:visible;"/>
			</clipPath>
		</g>
		<g>
			<defs>
				<path id="SVGID_15_" d="M18.7,13.2c0,1.6,0,6.8,0,6.8s-0.1,1,0.7,1c0.9,0,2.8,0,3.7,0c0.9,0,0.9-1.9,0-1.9c-0.9,0-2.5,0-2.5,0
					s0-4.8,0-6c0-0.6-0.5-0.8-1-0.8C19.2,12.3,18.7,12.6,18.7,13.2"/>
			</defs>
			<use xlink:href="#SVGID_15_"  style="overflow:visible;fill:#FFFFFF;"/>
			<clipPath id="SVGID_16_">
				<use xlink:href="#SVGID_15_"  style="overflow:visible;"/>
			</clipPath>
			<rect x="18.6" y="12.3" class="st3" width="5.5" height="8.7"/>
		</g>
		<g>
			<defs>
				<path id="SVGID_17_" d="M18.7,13.2c0,1.6,0,6.8,0,6.8s-0.1,1,0.7,1c0.9,0,2.8,0,3.7,0c0.9,0,0.9-1.9,0-1.9c-0.9,0-2.5,0-2.5,0
					s0-4.8,0-6c0-0.6-0.5-0.8-1-0.8C19.2,12.3,18.7,12.6,18.7,13.2"/>
			</defs>
			<clipPath id="SVGID_18_">
				<use xlink:href="#SVGID_17_"  style="overflow:visible;"/>
			</clipPath>
		</g>
	</g>
	<g>
		<g>
			<defs>
				<path id="SVGID_19_" d="M24.3,12.9c0,0.7,0,7.1,0,7.6c0,0.7,1.9,0.7,1.9,0c0-0.9,0-2.5,0-2.5l0.6-0.4l2.4,3.3
					c0.5,0.7,2-0.5,1.6-1.2l-2.6-3.4c0,0,1.8-1.9,2.5-2.6c0.4-0.4-0.8-1.7-1.3-1.3c-0.4,0.4-3.2,3.1-3.2,3.1s0-1.7,0-2.7
					c0-0.4-0.5-0.5-0.9-0.5C24.8,12.4,24.3,12.6,24.3,12.9"/>
			</defs>
			<clipPath id="SVGID_20_">
				<use xlink:href="#SVGID_19_"  style="overflow:visible;"/>
			</clipPath>
		</g>
		<g>
			<defs>
				<path id="SVGID_21_" d="M24.3,12.9c0,0.7,0,7.1,0,7.6c0,0.7,1.9,0.7,1.9,0c0-0.9,0-2.5,0-2.5l0.6-0.4l2.4,3.3
					c0.5,0.7,2-0.5,1.6-1.2l-2.6-3.4c0,0,1.8-1.9,2.5-2.6c0.4-0.4-0.8-1.7-1.3-1.3c-0.4,0.4-3.2,3.1-3.2,3.1s0-1.7,0-2.7
					c0-0.4-0.5-0.5-0.9-0.5C24.8,12.4,24.3,12.6,24.3,12.9"/>
			</defs>
			<use xlink:href="#SVGID_21_"  style="overflow:visible;fill:#FFFFFF;"/>
			<clipPath id="SVGID_22_">
				<use xlink:href="#SVGID_21_"  style="overflow:visible;"/>
			</clipPath>
			<rect x="24.3" y="12" class="st4" width="7" height="9.5"/>
		</g>
		<g>
			<defs>
				<path id="SVGID_23_" d="M24.3,12.9c0,0.7,0,7.1,0,7.6c0,0.7,1.9,0.7,1.9,0c0-0.9,0-2.5,0-2.5l0.6-0.4l2.4,3.3
					c0.5,0.7,2-0.5,1.6-1.2l-2.6-3.4c0,0,1.8-1.9,2.5-2.6c0.4-0.4-0.8-1.7-1.3-1.3c-0.4,0.4-3.2,3.1-3.2,3.1s0-1.7,0-2.7
					c0-0.4-0.5-0.5-0.9-0.5C24.8,12.4,24.3,12.6,24.3,12.9"/>
			</defs>
			<clipPath id="SVGID_24_">
				<use xlink:href="#SVGID_23_"  style="overflow:visible;"/>
			</clipPath>
		</g>
	</g>
</g>
<g>
	<path d="M18.2,2.5c-9.8,0-17.7,6.3-17.7,14c0,5,3.4,9.4,8.4,11.9c-0.4,1.4-1.3,5-1.5,5.8c-0.2,1,0.4,1,0.7,0.7
		c0.3-0.2,4.9-3.3,6.8-4.6c1.1,0.2,2.2,0.2,3.3,0.2c9.8,0,17.7-6.3,17.7-14C35.9,8.7,28,2.5,18.2,2.5"/>
	<g>
		<g>
			<g>
				<defs>
					<path id="SVGID_25_" d="M5.9,13.9h1.8c0,0,0,5,0,6.2c0,0.9,1.9,0.9,1.9,0l0-6.1c0,0,0.6,0,1.8,0c1.1,0,1.1-1.8,0-1.8
						c-1.3,0-5.5,0-5.5,0C4.8,12.1,4.8,13.9,5.9,13.9"/>
				</defs>
				<clipPath id="SVGID_26_">
					<use xlink:href="#SVGID_25_"  style="overflow:visible;"/>
				</clipPath>
			</g>
			<g>
				<defs>
					<path id="SVGID_27_" d="M5.9,13.9h1.8c0,0,0,5,0,6.2c0,0.9,1.9,0.9,1.9,0l0-6.1c0,0,0.6,0,1.8,0c1.1,0,1.1-1.8,0-1.8
						c-1.3,0-5.5,0-5.5,0C4.8,12.1,4.8,13.9,5.9,13.9"/>
				</defs>
				<use xlink:href="#SVGID_27_"  style="overflow:visible;fill:#FFFFFF;"/>
				<clipPath id="SVGID_28_">
					<use xlink:href="#SVGID_27_"  style="overflow:visible;"/>
				</clipPath>
				<rect x="4.8" y="12.1" class="st5" width="7.7" height="8.8"/>
			</g>
			<g>
				<defs>
					<path id="SVGID_29_" d="M5.9,13.9h1.8c0,0,0,5,0,6.2c0,0.9,1.9,0.9,1.9,0l0-6.1c0,0,0.6,0,1.8,0c1.1,0,1.1-1.8,0-1.8
						c-1.3,0-5.5,0-5.5,0C4.8,12.1,4.8,13.9,5.9,13.9"/>
				</defs>
				<clipPath id="SVGID_30_">
					<use xlink:href="#SVGID_29_"  style="overflow:visible;"/>
				</clipPath>
			</g>
		</g>
		<g>
			<g>
				<defs>
					<path id="SVGID_31_" d="M14.6,14.2l1,3.2h-2.1L14.6,14.2z M13.5,12.7c-0.4,1-2.1,5.7-2.6,6.9c-0.4,0.9,1.3,1.6,1.7,0.7l0.4-1.3
						h3.3c0,0-0.1,0.1,0.3,1.2c0.4,0.9,2.1,0.3,1.7-0.7c-0.5-1.4-2.3-6.2-2.6-6.9c-0.1-0.3-0.7-0.5-1.2-0.5
						C14,12.2,13.6,12.3,13.5,12.7"/>
				</defs>
				<clipPath id="SVGID_32_">
					<use xlink:href="#SVGID_31_"  style="overflow:visible;"/>
				</clipPath>
			</g>
			<g>
				<defs>
					<path id="SVGID_33_" d="M14.6,14.2l1,3.2h-2.1L14.6,14.2z M13.5,12.7c-0.4,1-2.1,5.7-2.6,6.9c-0.4,0.9,1.3,1.6,1.7,0.7l0.4-1.3
						h3.3c0,0-0.1,0.1,0.3,1.2c0.4,0.9,2.1,0.3,1.7-0.7c-0.5-1.4-2.3-6.2-2.6-6.9c-0.1-0.3-0.7-0.5-1.2-0.5
						C14,12.2,13.6,12.3,13.5,12.7"/>
				</defs>
				<use xlink:href="#SVGID_33_"  style="overflow:visible;fill:#FFFFFF;"/>
				<clipPath id="SVGID_34_">
					<use xlink:href="#SVGID_33_"  style="overflow:visible;"/>
				</clipPath>
				<rect x="10.5" y="12.2" class="st6" width="8.2" height="9.1"/>
			</g>
			<g>
				<defs>
					<path id="SVGID_35_" d="M14.6,14.2l1,3.2h-2.1L14.6,14.2z M13.5,12.7c-0.4,1-2.1,5.7-2.6,6.9c-0.4,0.9,1.3,1.6,1.7,0.7l0.4-1.3
						h3.3c0,0-0.1,0.1,0.3,1.2c0.4,0.9,2.1,0.3,1.7-0.7c-0.5-1.4-2.3-6.2-2.6-6.9c-0.1-0.3-0.7-0.5-1.2-0.5
						C14,12.2,13.6,12.3,13.5,12.7"/>
				</defs>
				<clipPath id="SVGID_36_">
					<use xlink:href="#SVGID_35_"  style="overflow:visible;"/>
				</clipPath>
			</g>
		</g>
		<g>
			<g>
				<defs>
					<path id="SVGID_37_" d="M18.9,13c0,1.6,0,6.7,0,6.7s-0.1,1,0.7,1c0.9,0,2.8,0,3.7,0c0.9,0,0.9-1.8,0-1.8c-0.9,0-2.4,0-2.4,0
						s0-4.7,0-5.9c0-0.6-0.5-0.8-1-0.8C19.4,12.2,18.9,12.5,18.9,13"/>
				</defs>
				<clipPath id="SVGID_38_">
					<use xlink:href="#SVGID_37_"  style="overflow:visible;"/>
				</clipPath>
			</g>
			<g>
				<defs>
					<path id="SVGID_39_" d="M18.9,13c0,1.6,0,6.7,0,6.7s-0.1,1,0.7,1c0.9,0,2.8,0,3.7,0c0.9,0,0.9-1.8,0-1.8c-0.9,0-2.4,0-2.4,0
						s0-4.7,0-5.9c0-0.6-0.5-0.8-1-0.8C19.4,12.2,18.9,12.5,18.9,13"/>
				</defs>
				<use xlink:href="#SVGID_39_"  style="overflow:visible;fill:#FFFFFF;"/>
				<clipPath id="SVGID_40_">
					<use xlink:href="#SVGID_39_"  style="overflow:visible;"/>
				</clipPath>
				<rect x="18.8" y="12.2" class="st7" width="5.4" height="8.5"/>
			</g>
			<g>
				<defs>
					<path id="SVGID_41_" d="M18.9,13c0,1.6,0,6.7,0,6.7s-0.1,1,0.7,1c0.9,0,2.8,0,3.7,0c0.9,0,0.9-1.8,0-1.8c-0.9,0-2.4,0-2.4,0
						s0-4.7,0-5.9c0-0.6-0.5-0.8-1-0.8C19.4,12.2,18.9,12.5,18.9,13"/>
				</defs>
				<clipPath id="SVGID_42_">
					<use xlink:href="#SVGID_41_"  style="overflow:visible;"/>
				</clipPath>
			</g>
		</g>
		<g>
			<g>
				<defs>
					<path id="SVGID_43_" d="M24.4,12.8c0,0.7,0,7,0,7.4c0,0.7,1.9,0.7,1.9,0c0-0.9,0-2.5,0-2.5l0.5-0.4l2.4,3.3
						c0.5,0.6,2-0.5,1.5-1.2l-2.6-3.4c0,0,1.7-1.9,2.4-2.6c0.4-0.4-0.8-1.6-1.2-1.2c-0.4,0.4-3.1,3.1-3.1,3.1s0-1.7,0-2.6
						c0-0.4-0.4-0.5-0.9-0.5C24.9,12.2,24.4,12.4,24.4,12.8"/>
				</defs>
				<clipPath id="SVGID_44_">
					<use xlink:href="#SVGID_43_"  style="overflow:visible;"/>
				</clipPath>
			</g>
			<g>
				<defs>
					<path id="SVGID_45_" d="M24.4,12.8c0,0.7,0,7,0,7.4c0,0.7,1.9,0.7,1.9,0c0-0.9,0-2.5,0-2.5l0.5-0.4l2.4,3.3
						c0.5,0.6,2-0.5,1.5-1.2l-2.6-3.4c0,0,1.7-1.9,2.4-2.6c0.4-0.4-0.8-1.6-1.2-1.2c-0.4,0.4-3.1,3.1-3.1,3.1s0-1.7,0-2.6
						c0-0.4-0.4-0.5-0.9-0.5C24.9,12.2,24.4,12.4,24.4,12.8"/>
				</defs>
				<use xlink:href="#SVGID_45_"  style="overflow:visible;fill:#FFFFFF;"/>
				<clipPath id="SVGID_46_">
					<use xlink:href="#SVGID_45_"  style="overflow:visible;"/>
				</clipPath>
				<rect x="24.4" y="11.9" class="st8" width="6.8" height="9.3"/>
			</g>
			<g>
				<defs>
					<path id="SVGID_47_" d="M24.4,12.8c0,0.7,0,7,0,7.4c0,0.7,1.9,0.7,1.9,0c0-0.9,0-2.5,0-2.5l0.5-0.4l2.4,3.3
						c0.5,0.6,2-0.5,1.5-1.2l-2.6-3.4c0,0,1.7-1.9,2.4-2.6c0.4-0.4-0.8-1.6-1.2-1.2c-0.4,0.4-3.1,3.1-3.1,3.1s0-1.7,0-2.6
						c0-0.4-0.4-0.5-0.9-0.5C24.9,12.2,24.4,12.4,24.4,12.8"/>
				</defs>
				<clipPath id="SVGID_48_">
					<use xlink:href="#SVGID_47_"  style="overflow:visible;"/>
				</clipPath>
			</g>
		</g>
	</g>
</g>
</svg>
