<?xml version="1.0" encoding="utf-8"?>
<!-- Generator: Adobe Illustrator 24.3.0, SVG Export Plug-In . SVG Version: 6.00 Build 0)  -->
<svg version="1.0" id="katman_1" xmlns="http://www.w3.org/2000/svg" xmlns:xlink="http://www.w3.org/1999/xlink" x="0px" y="0px"
	 viewBox="0 0 841.89 595.28" style="enable-background:new 0 0 841.89 595.28;" xml:space="preserve">
<style type="text/css">
	.st0{fill-rule:evenodd;clip-rule:evenodd;fill:#348B6B;}
	.st1{fill-rule:evenodd;clip-rule:evenodd;fill:#FAFFFD;}
	.st2{fill-rule:evenodd;clip-rule:evenodd;}
	.st3{fill:#1D1D1B;}
</style>
<path class="st0" d="M209.54,300.18c-2.44-13.29-8.26-24.91-17.45-34.81c-3.88-4.18-8.23-7.82-13.03-10.9
	c-8.94-5.75-18.68-9.27-29.24-10.52c-1.29-0.15-2.59-0.13-3.86-0.44c-3.04,0-6.08,0-9.11,0c-0.1,0.23-0.31,0.15-0.48,0.16
	c-2.35,0.21-4.68,0.47-7,0.91c-16.92,3.21-30.82,11.52-41.58,24.94c-8.85,11.04-13.72,23.7-14.77,37.82
	c-0.51,6.84-0.02,13.62,1.48,20.31c1.12,4.98,2.78,9.78,5.01,14.38c0.2,0.39,0.39,0.78,0.59,1.17c3.67,7.24,8.4,13.68,14.32,19.25
	c3.12,2.93,6.45,5.58,10.06,7.87c11.06,7.02,23.12,10.7,36.23,10.86c0.8,0.01,1.02,0.21,1.02,1.03c-0.04,7.02-0.02,14.04-0.02,21.05
	c0,0.27,0.02,0.54,0.04,0.88c0.23-0.09,0.37-0.14,0.51-0.21c13.18-6.19,25.28-14.02,36.07-23.82c2.15-1.95,4.2-4,6.18-6.12
	c0.85-0.91,1.68-1.84,2.53-2.75c1.31-1.4,2.44-2.97,3.68-4.44c1.43-1.7,2.71-3.51,3.97-5.33c2.79-4.02,5.28-8.22,7.38-12.65
	c1.06-2.24,2.07-4.5,2.96-6.81c0.03-0.04,0.07-0.08,0.09-0.13c2.43-6.33,3.99-12.87,4.83-19.59c0.29-2.34,0.48-4.69,0.6-7.05
	C210.78,310.2,210.45,305.16,209.54,300.18z"/>
<g>
	<path class="st1" d="M179.6,305.56c2-6.03,1.31-12.62-1.9-18.1c-4.82-8.4-14.52-12.72-23.99-10.69
		c-5.34-5.94-13.43-8.58-21.24-6.93s-14.15,7.34-16.63,14.93c-6.22,1.28-11.59,5.17-14.73,10.69c-4.88,8.38-3.77,18.96,2.74,26.15
		c-2.01,6.02-1.32,12.62,1.88,18.1c4.83,8.4,14.53,12.72,24.01,10.69c4.21,4.75,10.27,7.45,16.62,7.41
		c9.71,0.01,18.31-6.26,21.27-15.5c6.22-1.28,11.59-5.17,14.73-10.69C187.17,323.25,186.06,312.73,179.6,305.56z M146.35,352.02
		c-3.87,0.01-7.63-1.35-10.6-3.84l0.52-0.3l17.61-10.16c0.89-0.52,1.44-1.48,1.45-2.51v-24.83l7.45,4.31
		c0.07,0.04,0.13,0.11,0.14,0.19v20.57C162.9,344.6,155.49,352,146.35,352.02L146.35,352.02z M110.75,336.82
		c-1.94-3.35-2.64-7.29-1.97-11.11l0.52,0.31l17.63,10.16c0.89,0.52,1.99,0.52,2.88,0l21.53-12.41v8.6c0,0.09-0.05,0.17-0.12,0.23
		l-17.84,10.29C125.45,347.45,115.33,344.74,110.75,336.82z M106.11,298.46c1.96-3.38,5.04-5.95,8.72-7.27v20.92
		c-0.01,1.03,0.53,1.99,1.43,2.49l21.43,12.36l-7.45,4.31c-0.08,0.04-0.18,0.04-0.26,0L112.18,321c-7.91-4.58-10.62-14.7-6.07-22.63
		V298.46z M167.27,312.67l-21.5-12.48l7.43-4.29c0.08-0.04,0.18-0.04,0.26,0l17.8,10.29c5.56,3.21,8.76,9.33,8.23,15.72
		c-0.53,6.39-4.71,11.9-10.72,14.14v-20.92C168.74,314.1,168.17,313.17,167.27,312.67L167.27,312.67z M174.68,301.53l-0.52-0.31
		l-17.59-10.25c-0.89-0.52-2-0.52-2.89,0l-21.52,12.41v-8.6c-0.01-0.09,0.03-0.18,0.1-0.23l17.8-10.27
		c5.57-3.21,12.49-2.91,17.76,0.77c5.27,3.68,7.94,10.07,6.85,16.41V301.53L174.68,301.53z M128.1,316.77l-7.44-4.29
		c-0.08-0.05-0.13-0.12-0.14-0.21v-20.52c0.01-6.43,3.73-12.27,9.55-14.99s12.69-1.84,17.63,2.27l-0.52,0.3l-17.61,10.17
		c-0.89,0.52-1.44,1.48-1.45,2.51L128.1,316.77z M132.14,308.05l9.59-5.53l9.61,5.53v11.05l-9.57,5.53l-9.61-5.53L132.14,308.05
		L132.14,308.05z"/>
</g>
<g>
	<path class="st0" d="M325.61,174.24c1.86-5.59,1.21-11.71-1.76-16.79c-4.48-7.79-13.47-11.8-22.25-9.91
		c-4.95-5.51-12.46-7.95-19.71-6.42c-7.24,1.53-13.12,6.81-15.42,13.85c-5.77,1.18-10.75,4.8-13.67,9.91
		c-4.52,7.78-3.5,17.59,2.54,24.26c-1.86,5.59-1.23,11.7,1.75,16.79c4.48,7.79,13.48,11.8,22.27,9.91c3.91,4.4,9.53,6.91,15.41,6.87
		c9,0.01,16.98-5.8,19.73-14.38c5.77-1.19,10.75-4.8,13.67-9.91C332.64,190.66,331.61,180.9,325.61,174.24z M294.77,217.34
		c-3.59,0.01-7.07-1.25-9.83-3.56l0.49-0.28l16.33-9.43c0.83-0.49,1.34-1.37,1.34-2.33v-23.03l6.91,3.99
		c0.07,0.04,0.12,0.1,0.13,0.18v19.08C310.12,210.46,303.25,217.32,294.77,217.34L294.77,217.34z M261.75,203.24
		c-1.8-3.11-2.45-6.76-1.83-10.3l0.49,0.29l16.35,9.43c0.82,0.48,1.84,0.48,2.67,0l19.97-11.51v7.97c0,0.08-0.05,0.16-0.11,0.21
		l-16.54,9.54C275.39,213.1,265.99,210.58,261.75,203.24z M257.44,167.66c1.81-3.13,4.68-5.52,8.09-6.74v19.41
		c-0.01,0.96,0.5,1.84,1.33,2.31l19.88,11.47l-6.91,3.99c-0.08,0.04-0.17,0.04-0.24,0l-16.51-9.53c-7.34-4.25-9.85-13.64-5.63-20.99
		V167.66z M314.18,180.84l-19.94-11.58l6.89-3.98c0.08-0.04,0.17-0.04,0.24,0l16.51,9.54c5.15,2.97,8.13,8.66,7.63,14.59
		c-0.5,5.93-4.37,11.04-9.94,13.12v-19.41C315.54,182.17,315.01,181.3,314.18,180.84L314.18,180.84z M321.05,170.51l-0.49-0.29
		l-16.32-9.51c-0.83-0.49-1.86-0.49-2.68,0l-19.96,11.51v-7.97c-0.01-0.08,0.03-0.16,0.1-0.21l16.51-9.53
		c5.17-2.98,11.59-2.7,16.48,0.71c4.89,3.41,7.37,9.34,6.36,15.22V170.51L321.05,170.51z M277.84,184.64l-6.91-3.98
		c-0.07-0.04-0.12-0.11-0.13-0.19v-19.04c0.01-5.96,3.46-11.38,8.86-13.91c5.4-2.53,11.77-1.71,16.36,2.1l-0.49,0.28l-16.33,9.43
		c-0.83,0.49-1.34,1.37-1.34,2.33L277.84,184.64z M281.59,176.55l8.9-5.13l8.91,5.13v10.25l-8.88,5.13l-8.91-5.13L281.59,176.55
		L281.59,176.55z"/>
</g>
<g>
	<path class="st2" d="M489.11,173.34c-5.01,0-8.58,1.71-10.34,4.95l-0.94,1.74v-5.85h-8.16v35.63h8.58v-21.2
		c0-5.07,2.75-7.97,7.55-7.97c4.57,0,7.2,2.83,7.2,7.76v21.41h8.58v-22.94C501.58,178.4,496.92,173.34,489.11,173.34z"/>
	<path class="st2" d="M463.36,194.81v-5.91c0-9.47-6.22-15.56-15.84-15.56c-10.12,0-16.41,6.31-16.41,16.48v5
		c0,9.77,6.34,15.84,16.55,15.84c6.82,0,11.61-2.51,14.62-7.65l-5.32-3.06c-2.22,2.97-5.78,4.8-9.3,4.8c-5.17,0-8.26-3.19-8.26-8.54
		v-1.42H463.36z M439.41,188.19c0-5.87,2.88-9.1,8.11-9.1c5.04,0,8.04,3.19,8.04,8.54v1.42h-16.15V188.19z"/>
	<polygon class="st2" points="586.74,168.31 586.74,161.5 557.08,161.5 557.08,168.31 567.48,168.31 567.48,203 557.08,203 
		557.08,209.81 586.74,209.81 586.74,203 576.34,203 576.34,168.31 	"/>
	<path class="st2" d="M361.82,160.51c-13.25,0-21.48,8.26-21.48,21.55v7.19c0,13.29,8.23,21.55,21.48,21.55
		c13.25,0,21.48-8.26,21.48-21.55v-7.19C383.31,168.77,375.07,160.51,361.82,160.51z M361.82,203.63c-8.02,0-12.62-5.07-12.62-13.89
		v-8.17c0-8.83,4.6-13.89,12.62-13.89s12.62,5.07,12.62,13.89l0,8.17C374.45,198.57,369.85,203.63,361.82,203.63z"/>
	<path class="st2" d="M410.24,173.34l0,0.02c-4.5,0-8.4,1.86-10.43,4.99l-0.93,1.42v-5.58h-8.15v47.89h8.58v-17.34l0.92,1.36
		c1.93,2.86,5.7,4.57,10.08,4.57c7.4,0,14.86-4.84,14.86-15.63v-6.07C425.17,181.19,420.57,173.34,410.24,173.34z M416.6,194.62
		c0,5.74-3.35,9.31-8.74,9.31c-5.03,0-8.54-3.77-8.54-9.17v-5.35c0-5.48,3.54-9.31,8.6-9.31c5.35,0,8.68,3.57,8.68,9.31
		L416.6,194.62z"/>
	<path class="st2" d="M534.58,161.5l-9.3,0.02l-17.32,48.3h8.7l3.31-10.36h19.9l0.03,0.1l3.28,10.25h8.71L534.58,161.5z
		 M522.13,192.66l7.81-24.45l7.73,24.42L522.13,192.66z"/>
</g>
<g>
	<path class="st3" d="M372.26,304.76v11.35c0,19.79-6.14,35.57-18.43,47.36s-27.89,17.68-46.79,17.68
		c-20.56,0-37.6-6.62-51.14-19.85c-13.55-13.24-20.32-29.49-20.32-48.78c0-19.29,6.71-35.6,20.12-48.97
		c13.43-13.36,29.85-20.04,49.25-20.04c12.35,0,23.66,2.77,33.94,8.32c10.28,5.55,18.25,12.85,23.91,21.93l-25.71,14.75
		c-2.89-4.54-7.22-8.25-12.94-11.15c-5.74-2.9-12.2-4.35-19.39-4.35c-11.22,0-20.51,3.72-27.88,11.15
		c-7.39,7.43-11.06,16.95-11.06,28.55c0,11.47,3.77,20.82,11.34,28.07c7.57,7.25,17.65,10.87,30.25,10.87
		c17.52,0,28.8-6.81,33.85-20.42H305.9v-26.47H372.26z"/>
	<path class="st3" d="M439.38,246.15c12.97,0,23.94,4.41,32.89,13.23c8.94,8.82,13.42,19.54,13.42,32.14
		c0,12.61-4.48,23.32-13.42,32.14c-8.95,8.82-19.92,13.23-32.89,13.23h-19.86v41.6h-30.25V246.15H439.38z M439.38,308.54
		c4.66,0,8.51-1.64,11.52-4.92c3.03-3.28,4.54-7.31,4.54-12.1c0-4.78-1.51-8.82-4.54-12.1c-3.02-3.28-6.86-4.92-11.52-4.92h-19.86
		v34.03H439.38z"/>
	<path class="st3" d="M587.79,246.15v29.12h-34.03v103.22h-30.25V275.27h-34.03v-29.12H587.79z"/>
	<path class="st3" d="M591.56,335.57v-27.23h71.85v27.23H591.56z"/>
	<path class="st3" d="M728.63,292.65c12.99,0,23.79,3.88,32.42,11.63c8.63,7.75,12.95,18.62,12.95,32.61
		c0,13.87-4.66,24.71-13.99,32.52c-9.32,7.82-20.74,11.72-34.22,11.72c-10.97,0-20.62-2.36-28.93-7.09
		c-8.32-4.72-14.43-11.82-18.34-21.26l26.09-15.12c3.26,9.32,10.32,13.99,21.17,13.99c5.92,0,10.4-1.38,13.42-4.15
		c3.03-2.78,4.54-6.31,4.54-10.59c0-4.28-1.45-7.81-4.35-10.59c-2.89-2.77-7.11-4.16-12.66-4.16h-41.4l5.48-76h76.57v28.36h-48.2
		l-1.32,18.15H728.63z"/>
</g>
</svg>
